<svg xmlns="http://www.w3.org/2000/svg" version="1.1" xmlns:xlink="http://www.w3.org/1999/xlink" xmlns:svgjs="http://svgjs.dev/svgjs" width="1500" height="1500" viewBox="0 0 1500 1500"><rect width="1500" height="1500" fill="#ffffff"></rect><g transform="matrix(0.6666666666666666,0,0,0.6666666666666666,249.39393939393938,682.9777203074315)"><svg viewBox="0 0 396 53" data-background-color="#ffffff" preserveAspectRatio="xMidYMid meet" height="200" width="1500" xmlns="http://www.w3.org/2000/svg" xmlns:xlink="http://www.w3.org/1999/xlink"><g id="tight-bounds" transform="matrix(1,0,0,1,0.2400000000000091,0.14135617779604104)"><svg viewBox="0 0 395.52 52.71728764440791" height="52.71728764440791" width="395.52"><g><svg viewBox="0 0 516.4493763750071 68.83548323254534" height="52.71728764440791" width="395.52"><g><rect width="6.176771060825509" height="68.83548323254534" x="98.58304756332944" y="0" fill="#77d4fc" opacity="1" stroke-width="0" stroke="transparent" fill-opacity="1" class="rect-yte-0" data-fill-palette-color="primary" rx="1%" id="yte-0" data-palette-color="#77d4fc"></rect></g><g transform="matrix(1,0,0,1,120.92937637500707,0.17123254535458443)"><svg viewBox="0 0 395.52 68.49301814183617" height="68.49301814183617" width="395.52"><g id="textblocktransform"><svg viewBox="0 0 395.52 68.49301814183617" height="68.49301814183617" width="395.52" id="textblock"><g><svg viewBox="0 0 395.52 68.49301814183617" height="68.49301814183617" width="395.52"><g transform="matrix(1,0,0,1,0,0)"><svg width="395.52" viewBox="1.88 -33.33 252.61 43.75" height="68.49301814183617" data-palette-color="#77d4fc"><path d="M18.4 0.63L18.4 0.63Q14.97 0.63 11.98-0.64 8.99-1.91 6.72-4.13 4.44-6.35 3.16-9.31 1.88-12.26 1.88-15.63L1.88-15.63Q1.88-18.99 3.16-21.94 4.44-24.9 6.72-27.12 8.99-29.34 11.98-30.61 14.97-31.88 18.4-31.88L18.4-31.88Q21.84-31.88 24.83-30.61 27.81-29.34 30.09-27.12 32.36-24.9 33.65-21.94 34.93-18.99 34.93-15.63L34.93-15.63Q34.93-12.26 33.65-9.31 32.36-6.35 30.09-4.13 27.81-1.91 24.83-0.64 21.84 0.63 18.4 0.63ZM18.4-5.42L18.4-5.42Q21.22-5.42 23.47-6.79 25.73-8.16 27.07-10.49 28.4-12.81 28.4-15.63L28.4-15.63Q28.4-18.47 27.07-20.78 25.73-23.09 23.47-24.46 21.22-25.83 18.4-25.83L18.4-25.83Q15.59-25.83 13.32-24.46 11.04-23.09 9.72-20.78 8.4-18.47 8.4-15.63L8.4-15.63Q8.4-12.81 9.72-10.49 11.04-8.16 13.32-6.79 15.59-5.42 18.4-5.42ZM45.14 10.42L39.09 10.42 39.09-20.83 44.3-20.83 44.3-18.78Q45.52-20 47.17-20.69 48.82-21.39 50.8-21.39L50.8-21.39Q53.71-21.39 56.07-19.91 58.44-18.44 59.84-15.94 61.25-13.44 61.25-10.42L61.25-10.42Q61.25-7.4 59.84-4.91 58.44-2.43 56.07-0.94 53.71 0.56 50.8 0.56L50.8 0.56Q49.13 0.56 47.71 0.05 46.28-0.45 45.14-1.32L45.14-1.32 45.14 10.42ZM50.1-4.76L50.1-4.76Q51.63-4.76 52.88-5.52 54.13-6.28 54.88-7.57 55.62-8.85 55.62-10.42L55.62-10.42Q55.62-11.98 54.88-13.26 54.13-14.55 52.88-15.31 51.63-16.08 50.1-16.08L50.1-16.08Q48.57-16.08 47.32-15.31 46.07-14.55 45.33-13.26 44.58-11.98 44.58-10.42L44.58-10.42Q44.58-8.85 45.33-7.57 46.07-6.28 47.32-5.52 48.57-4.76 50.1-4.76ZM72.84 0.69L72.84 0.69Q70.65 0.69 68.71-0.36 66.77-1.42 65.57-3.45 64.37-5.49 64.37-8.37L64.37-8.37 64.37-20.83 70.41-20.83 70.41-9.17Q70.41-7.43 71.47-6.08 72.53-4.72 74.44-4.72L74.44-4.72Q76-4.72 77.23-5.85 78.47-6.98 78.47-9.1L78.47-9.1 78.47-20.83 84.51-20.83 84.51 0 79.02 0 79.02-2.19Q77.91-0.8 76.3-0.05 74.68 0.69 72.84 0.69ZM95.2 0L89.16 0 89.16-33.33 95.2-33.33 95.2 0ZM109.23 0.56L109.23 0.56Q106.34 0.56 103.98-0.94 101.62-2.43 100.22-4.91 98.81-7.4 98.81-10.42L98.81-10.42Q98.81-13.44 100.22-15.94 101.62-18.44 103.98-19.91 106.34-21.39 109.23-21.39L109.23-21.39Q111.24-21.39 112.91-20.68 114.57-19.97 115.75-18.72L115.75-18.72 115.75-20.83 120.96-20.83 120.96 0 115.75 0 115.75-2.12Q114.57-0.87 112.91-0.16 111.24 0.56 109.23 0.56ZM109.96-4.76L109.96-4.76Q111.48-4.76 112.73-5.52 113.98-6.28 114.73-7.57 115.48-8.85 115.48-10.42L115.48-10.42Q115.48-11.98 114.73-13.26 113.98-14.55 112.73-15.31 111.48-16.08 109.96-16.08L109.96-16.08Q108.43-16.08 107.18-15.31 105.93-14.55 105.18-13.26 104.43-11.98 104.43-10.42L104.43-10.42Q104.43-8.85 105.18-7.57 105.93-6.28 107.18-5.52 108.43-4.76 109.96-4.76ZM132.38 0.69L132.38 0.69Q130.27 0.69 128.1 0 125.93-0.69 124.71-1.88L124.71-1.88 126.2-7.57Q127.21-6.18 129-5.14 130.79-4.1 132.7-4.1L132.7-4.1Q133.98-4.1 134.55-4.58 135.13-5.07 135.13-5.76L135.13-5.76Q135.13-6.56 134.54-6.93 133.95-7.29 133.32-7.53L133.32-7.53 130.4-8.65Q129.43-9.03 128.18-9.69 126.93-10.35 126.01-11.56 125.09-12.78 125.09-14.76L125.09-14.76Q125.09-16.56 125.99-18.09 126.9-19.62 128.62-20.57 130.33-21.53 132.77-21.53L132.77-21.53Q135.02-21.53 136.98-20.76 138.95-20 139.85-19.06L139.85-19.06 138.46-13.58Q137.28-15.1 135.66-15.92 134.05-16.74 132.59-16.74L132.59-16.74Q131.48-16.74 130.96-16.28 130.44-15.83 130.44-15.24L130.44-15.24Q130.44-14.79 130.8-14.36 131.17-13.92 132.04-13.58L132.04-13.58 134.74-12.57Q135.93-12.15 137.26-11.46 138.6-10.76 139.54-9.53 140.47-8.3 140.47-6.15L140.47-6.15Q140.47-3.13 138.23-1.22 135.99 0.69 132.38 0.69ZM149.99 10.42L143.94 10.42 143.94-20.83 149.15-20.83 149.15-18.78Q150.37-20 152.02-20.69 153.67-21.39 155.64-21.39L155.64-21.39Q158.56-21.39 160.92-19.91 163.28-18.44 164.69-15.94 166.1-13.44 166.1-10.42L166.1-10.42Q166.1-7.4 164.69-4.91 163.28-2.43 160.92-0.94 158.56 0.56 155.64 0.56L155.64 0.56Q153.98 0.56 152.55 0.05 151.13-0.45 149.99-1.32L149.99-1.32 149.99 10.42ZM154.95-4.76L154.95-4.76Q156.48-4.76 157.73-5.52 158.98-6.28 159.72-7.57 160.47-8.85 160.47-10.42L160.47-10.42Q160.47-11.98 159.72-13.26 158.98-14.55 157.73-15.31 156.48-16.08 154.95-16.08L154.95-16.08Q153.42-16.08 152.17-15.31 150.92-14.55 150.18-13.26 149.43-11.98 149.43-10.42L149.43-10.42Q149.43-8.85 150.18-7.57 150.92-6.28 152.17-5.52 153.42-4.76 154.95-4.76ZM175.68 0L169.64 0 169.64-33.33 175.68-33.33 175.68-19.27Q176.79-20.38 178.23-20.95 179.67-21.53 181.3-21.53L181.3-21.53Q183.52-21.53 185.45-20.47 187.38-19.41 188.58-17.38 189.77-15.35 189.77-12.47L189.77-12.47 189.77 0 183.73 0 183.73-11.67Q183.73-13.4 182.69-14.76 181.65-16.11 179.7-16.11L179.7-16.11Q178.14-16.11 176.91-15.05 175.68-13.99 175.68-11.74L175.68-11.74 175.68 0ZM204.74 0.69L204.74 0.69Q201.23 0.69 198.56-0.76 195.88-2.22 194.39-4.77 192.9-7.33 192.9-10.63L192.9-10.63Q192.9-13.78 194.36-16.23 195.81-18.68 198.3-20.1 200.78-21.53 203.8-21.53L203.8-21.53Q206.89-21.53 209.32-20.12 211.75-18.72 213.16-16.28 214.56-13.85 214.56-10.76L214.56-10.76 214.56-8.65 201.86-8.65Q200.99-8.65 200.19-8.75 199.39-8.85 198.59-8.99L198.59-8.99Q199.01-6.91 200.66-5.61 202.31-4.31 204.88-4.31L204.88-4.31Q206.86-4.31 208.43-5.1 210.01-5.9 211.02-7.08L211.02-7.08 212.34-1.67Q210.78-0.49 208.82 0.1 206.86 0.69 204.74 0.69ZM198.45-12.64L198.45-12.64Q200.19-13.02 201.86-13.02L201.86-13.02 205.54-13.02Q206.51-13.02 207.38-12.95 208.24-12.88 209.01-12.71L209.01-12.71Q208.49-14.58 207.12-15.66 205.74-16.74 203.73-16.74L203.73-16.74Q201.82-16.74 200.41-15.64 199.01-14.55 198.45-12.64ZM223.94 0L217.89 0 217.89-20.83 223.31-20.83 223.31-17.26Q224.39-19.06 226.04-20.05 227.69-21.04 229.91-21.04L229.91-21.04 231.23-15.69Q230.57-15.9 229.73-15.9L229.73-15.9Q227.13-15.9 225.53-14.22 223.94-12.53 223.94-9.41L223.94-9.41 223.94 0ZM244.66 0.69L244.66 0.69Q241.16 0.69 238.48-0.76 235.81-2.22 234.32-4.77 232.82-7.33 232.82-10.63L232.82-10.63Q232.82-13.78 234.28-16.23 235.74-18.68 238.22-20.1 240.7-21.53 243.73-21.53L243.73-21.53Q246.82-21.53 249.25-20.12 251.68-18.72 253.08-16.28 254.49-13.85 254.49-10.76L254.49-10.76 254.49-8.65 241.78-8.65Q240.91-8.65 240.11-8.75 239.32-8.85 238.52-8.99L238.52-8.99Q238.93-6.91 240.58-5.61 242.23-4.31 244.8-4.31L244.8-4.31Q246.78-4.31 248.36-5.1 249.94-5.9 250.95-7.08L250.95-7.08 252.27-1.67Q250.7-0.49 248.74 0.1 246.78 0.69 244.66 0.69ZM238.38-12.64L238.38-12.64Q240.11-13.02 241.78-13.02L241.78-13.02 245.46-13.02Q246.43-13.02 247.3-12.95 248.17-12.88 248.93-12.71L248.93-12.71Q248.41-14.58 247.04-15.66 245.67-16.74 243.66-16.74L243.66-16.74Q241.75-16.74 240.34-15.64 238.93-14.55 238.38-12.64Z" opacity="1" transform="matrix(1,0,0,1,0,0)" fill="#77d4fc" class="wordmark-text-0" data-fill-palette-color="primary" id="text-0"></path></svg></g></svg></g></svg></g></svg></g><g transform="matrix(1,0,0,1,0,5.650673996701478)"><svg viewBox="0 0 82.41348981247732 57.53413523914239" height="57.53413523914239" width="82.41348981247732"><g><svg xmlns:xl="http://www.w3.org/1999/xlink" xmlns:dc="http://purl.org/dc/elements/1.1/" xmlns="http://www.w3.org/2000/svg" xmlns:xlink="http://www.w3.org/1999/xlink" version="1.1" x="0" y="0" viewBox="-313.57518031602507 367.575 87.16322639151218 60.85000000000002" enable-background="new -320 350 100 100" xml:space="preserve" height="57.53413523914239" width="82.41348981247732" class="icon-icon-0" data-fill-palette-color="accent" id="icon-0"><path d="M-226.743 381.392C-228.761 376.15-238.595 376.498-247.212 377.926-252.792 371.587-260.957 367.575-270.046 367.575-286.821 367.575-300.471 381.223-300.471 398-300.471 398.133-300.463 398.264-300.461 398.396-307.795 403.101-315.249 409.388-313.244 414.604-311.979 417.895-307.63 418.982-302.432 418.982-299.384 418.982-296.055 418.6-292.876 418.077-287.296 424.415-279.132 428.425-270.045 428.425-253.267 428.425-239.62 414.776-239.62 398-239.62 397.888-239.627 397.778-239.628 397.667-232.263 392.956-224.729 386.635-226.743 381.392M-270.046 373.107C-256.923 373.107-246.146 383.321-245.224 396.215A127 127 0 0 1-253.078 400.42C-254.782 397.653-257.829 395.803-261.318 395.803A9.68 9.68 0 0 0-270.999 405.484C-270.999 406.298-270.887 407.085-270.698 407.84-277.336 410.205-283.799 412.052-289.687 413.266A24.76 24.76 0 0 1-294.938 398C-294.939 384.275-283.773 373.107-270.046 373.107M-309.371 413.116C-309.839 411.897-307.579 408.24-300.037 403.091A30.2 30.2 0 0 0-295.706 414.315C-304.768 415.539-308.903 414.335-309.371 413.116M-270.046 422.894C-276.28 422.894-281.982 420.585-286.354 416.785-280.826 415.518-274.893 413.763-268.833 411.583A9.66 9.66 0 0 0-261.319 415.164C-255.972 415.164-251.638 410.829-251.638 405.484-251.638 405.107-251.665 404.736-251.707 404.371A138 138 0 0 0-245.347 401.059C-246.861 413.346-257.358 422.894-270.046 422.894M-240.045 392.969A30.2 30.2 0 0 0-244.379 381.694C-235.253 380.449-231.087 381.658-230.615 382.881-230.146 384.104-232.43 387.789-240.045 392.969" fill="#4b91f1" data-fill-palette-color="accent"></path></svg></g></svg></g></svg></g><defs></defs></svg><rect width="395.52" height="52.71728764440791" fill="none" stroke="none" visibility="hidden"></rect></g></svg></g></svg>